<?xml version="1.0" encoding="UTF-8" standalone="no"?>
<svg
   id="svg"
   version="1.1"
   width="206.92589"
   height="239.20839"
   viewBox="0 0 206.92589 239.2084"
   sodipodi:docname="image2vector.svg"
   inkscape:version="1.2 (dc2aedaf03, 2022-05-15)"
   xmlns:inkscape="http://www.inkscape.org/namespaces/inkscape"
   xmlns:sodipodi="http://sodipodi.sourceforge.net/DTD/sodipodi-0.dtd"
   xmlns="http://www.w3.org/2000/svg"
   xmlns:svg="http://www.w3.org/2000/svg">
  <defs
     id="defs149" />
  <sodipodi:namedview
     id="namedview147"
     pagecolor="#ffffff"
     bordercolor="#000000"
     borderopacity="0.25"
     inkscape:showpageshadow="2"
     inkscape:pageopacity="0.0"
     inkscape:pagecheckerboard="0"
     inkscape:deskcolor="#d1d1d1"
     showgrid="false"
     inkscape:zoom="3.0525001"
     inkscape:cx="103.1941"
     inkscape:cy="119.73792"
     inkscape:window-width="1920"
     inkscape:window-height="1001"
     inkscape:window-x="-9"
     inkscape:window-y="-9"
     inkscape:window-maximized="1"
     inkscape:current-layer="svgg" />
  <g
     id="svgg"
     transform="translate(-97.034909,-13.897607)">
    <path
       id="path0"
       d="m 198.933,14.507 c -0.513,0.335 -1.473,0.909 -2.133,1.276 -1.162,0.647 -3.569,2.039 -5.024,2.906 -0.39,0.233 -1.429,0.819 -2.309,1.302 -0.88,0.484 -1.72,0.971 -1.867,1.083 -0.326,0.25 -4.979,2.926 -5.087,2.926 -0.042,0 -1.675,0.939 -3.628,2.086 -1.953,1.147 -4.152,2.435 -4.885,2.863 -0.733,0.428 -1.573,0.924 -1.867,1.104 -0.293,0.179 -0.713,0.414 -0.933,0.522 -0.22,0.108 -1.882,1.073 -3.694,2.144 -1.811,1.071 -3.324,1.948 -3.361,1.948 -0.11,0 -4.443,2.511 -5.674,3.288 -0.62,0.391 -1.181,0.712 -1.247,0.712 -0.067,0 -1.641,0.9 -3.499,2 -1.859,1.1 -3.419,2 -3.467,2 -0.048,0 -1.608,0.9 -3.467,2 -1.858,1.1 -3.432,2 -3.497,2 -0.066,0 -0.748,0.402 -1.517,0.894 -1.273,0.814 -2.16,1.324 -5.777,3.323 -0.66,0.365 -1.832,1.065 -2.605,1.556 -0.773,0.491 -1.455,0.893 -1.515,0.893 -0.061,0 -1.63,0.9 -3.489,2 -1.858,1.1 -3.418,2 -3.466,2 -0.049,0 -1.609,0.9 -3.467,2 -1.858,1.1 -3.429,2 -3.49,2 -0.062,0 -0.619,0.321 -1.239,0.712 -1.282,0.809 -5.566,3.288 -5.682,3.288 -0.043,0 -1.597,0.9 -3.456,2 -1.858,1.1 -3.432,2 -3.497,2 -0.066,0 -0.776,0.42 -1.579,0.934 -0.802,0.513 -1.508,0.933 -1.568,0.933 -0.243,0 -3.34,1.937 -3.602,2.253 -0.446,0.537 -0.395,119.618 0.051,120.036 0.186,0.174 1.057,0.705 1.937,1.182 0.88,0.476 1.72,0.958 1.867,1.07 0.319,0.244 4.978,2.926 5.083,2.926 0.04,0 2.618,1.5 5.728,3.333 3.11,1.833 5.691,3.333 5.737,3.333 0.045,0 1.602,0.9 3.461,2 1.858,1.1 3.416,2 3.463,2 0.094,0 5.366,3.052 5.995,3.471 0.22,0.146 0.58,0.349 0.8,0.45 0.22,0.101 1.882,1.06 3.693,2.132 1.812,1.071 3.348,1.947 3.413,1.947 0.066,0 0.748,0.403 1.517,0.894 0.768,0.492 2.112,1.292 2.987,1.777 0.874,0.486 2.13,1.183 2.79,1.549 0.66,0.366 1.657,0.952 2.217,1.304 0.987,0.62 1.331,0.817 3.956,2.279 0.682,0.38 1.702,0.978 2.267,1.33 0.564,0.352 1.206,0.726 1.426,0.831 0.22,0.105 0.64,0.337 0.934,0.517 0.293,0.18 1.373,0.795 2.4,1.369 1.026,0.573 2.166,1.244 2.533,1.492 0.367,0.247 1.387,0.846 2.267,1.331 3.185,1.754 3.473,1.92 3.866,2.221 0.22,0.169 0.64,0.437 0.934,0.597 2.007,1.096 3.826,2.133 6.221,3.548 1.516,0.895 2.797,1.628 2.849,1.628 0.051,0 1.613,0.9 3.472,2 1.858,1.1 3.424,2 3.48,2 0.056,0 0.914,0.498 1.906,1.107 1.889,1.158 2.385,1.444 5.005,2.887 0.88,0.485 1.9,1.087 2.267,1.339 0.639,0.439 1.312,0.824 4.991,2.857 l 1.657,0.916 1.676,-0.924 c 0.922,-0.508 2.915,-1.657 4.431,-2.553 1.515,-0.896 2.793,-1.629 2.839,-1.629 0.047,0 1.605,-0.9 3.464,-2 1.858,-1.1 3.436,-2 3.506,-2 0.07,0 0.752,-0.396 1.515,-0.88 0.763,-0.484 2.227,-1.352 3.254,-1.93 1.027,-0.577 2.069,-1.171 2.316,-1.32 1.177,-0.707 3.672,-2.153 4.751,-2.754 0.66,-0.367 1.647,-0.948 2.194,-1.292 0.547,-0.343 1.055,-0.624 1.129,-0.624 0.073,0 0.79,-0.42 1.592,-0.933 0.802,-0.514 1.513,-0.934 1.578,-0.934 0.066,0 1.64,-0.9 3.498,-2 1.858,-1.1 3.422,-2 3.475,-2 0.054,0 1.617,-0.9 3.476,-2 1.858,-1.1 3.432,-2 3.497,-2 0.066,0 0.744,-0.396 1.507,-0.88 0.763,-0.484 2.227,-1.352 3.254,-1.929 1.026,-0.578 2.106,-1.197 2.4,-1.377 0.293,-0.179 0.713,-0.415 0.933,-0.523 0.22,-0.108 1.58,-0.893 3.022,-1.744 1.442,-0.851 2.675,-1.547 2.74,-1.547 0.065,0 0.865,-0.461 1.778,-1.025 1.577,-0.973 2.713,-1.632 5.127,-2.973 0.586,-0.326 1.726,-0.988 2.533,-1.471 2.982,-1.787 8.839,-5.197 8.924,-5.197 0.049,0 1.609,-0.9 3.467,-2 1.859,-1.1 3.433,-2 3.499,-2 0.066,0 0.628,-0.321 1.248,-0.712 1.23,-0.777 5.564,-3.288 5.673,-3.288 0.038,0 1.55,-0.877 3.362,-1.948 1.812,-1.071 3.474,-2.033 3.694,-2.136 0.22,-0.104 0.76,-0.407 1.2,-0.674 l 0.8,-0.486 0.067,-59.98 c 0.064,-56.907 0.043,-59.995 -0.4,-60.269 -0.257,-0.159 -1.187,-0.688 -2.067,-1.176 -0.88,-0.487 -1.92,-1.076 -2.31,-1.309 -1.527,-0.91 -3.881,-2.27 -5.024,-2.902 -0.66,-0.365 -1.5,-0.865 -1.866,-1.113 -0.367,-0.247 -1.507,-0.918 -2.534,-1.491 -1.026,-0.574 -2.106,-1.189 -2.4,-1.369 -0.293,-0.18 -0.713,-0.412 -0.933,-0.517 -0.22,-0.105 -0.858,-0.477 -1.417,-0.825 -1.061,-0.661 -1.654,-1 -4.316,-2.466 -0.88,-0.485 -1.9,-1.088 -2.267,-1.339 -0.367,-0.252 -1.387,-0.855 -2.267,-1.34 -3.323,-1.831 -4.033,-2.24 -5.385,-3.105 -0.764,-0.489 -1.443,-0.889 -1.508,-0.889 -0.116,0 -6.572,-3.74 -7.373,-4.271 -0.22,-0.146 -0.58,-0.349 -0.8,-0.45 -0.22,-0.102 -1.58,-0.881 -3.022,-1.732 -1.442,-0.851 -2.66,-1.547 -2.706,-1.547 -0.047,0 -1.605,-0.9 -3.464,-2 -1.858,-1.1 -3.415,-2 -3.461,-2 -0.045,0 -2.627,-1.5 -5.737,-3.333 -3.11,-1.833 -5.695,-3.333 -5.744,-3.333 -0.049,0 -1.329,-0.733 -2.845,-1.628 -1.515,-0.895 -3.415,-1.995 -4.221,-2.444 -0.807,-0.449 -1.786,-1.006 -2.176,-1.239 -1.427,-0.85 -3.855,-2.255 -5.024,-2.908 -0.66,-0.368 -2.381,-1.369 -3.825,-2.225 -1.444,-0.856 -2.68,-1.556 -2.746,-1.556 -0.067,0 -0.75,-0.403 -1.519,-0.894 -0.769,-0.492 -2.113,-1.291 -2.987,-1.777 -0.875,-0.486 -2.01,-1.117 -2.523,-1.402 -0.514,-0.285 -1.594,-0.911 -2.4,-1.391 -6.418,-3.818 -6.155,-3.726 -7.734,-2.696 m 0.16,51.101 c 2.112,2.083 3.84,3.893 3.84,4.023 0,0.132 -3.768,0.236 -8.533,0.236 -6.651,0 -8.533,-0.074 -8.53,-0.334 0.01,-0.966 8.212,-8.532 8.802,-8.119 0.32,0.224 2.309,2.111 4.421,4.194 m -36.973,6.079 c 8.91,3.065 11.815,13.31 5.685,20.044 -0.808,0.886 -0.855,0.771 1.232,2.986 5.445,5.779 5.232,5.462 4.206,6.268 -0.342,0.27 -2.029,1.807 -3.748,3.417 -1.718,1.61 -3.292,3.02 -3.497,3.135 -0.412,0.231 -1.233,-0.534 -4.931,-4.597 -1.247,-1.37 -3.227,-3.497 -4.4,-4.728 l -2.134,-2.238 -2.8,-0.007 c -1.54,-0.004 -3.006,0.001 -3.259,0.013 -0.41,0.018 -0.468,0.446 -0.534,3.953 l -0.073,3.934 -5.315,0.072 c -2.922,0.04 -5.413,-0.027 -5.534,-0.148 -0.267,-0.267 -0.348,-32.165 -0.083,-32.594 0.4,-0.647 23.169,-0.204 25.185,0.49 m 63.95,10.289 c 0.048,7.513 0.162,11.021 0.366,11.267 0.224,0.271 1.318,0.357 4.525,0.357 5.05,0 4.555,-0.637 4.448,5.733 l -0.076,4.534 H 225.2 215.067 l -0.069,-16.25 c -0.054,-12.822 0.002,-16.295 0.267,-16.466 0.184,-0.119 2.675,-0.186 5.535,-0.15 l 5.2,0.066 0.07,10.909 m 40.277,-10.723 c 0.479,0.48 0.447,9.376 -0.036,9.776 -0.234,0.195 -2.747,0.319 -7.4,0.366 l -7.044,0.072 -0.084,0.866 -0.083,0.867 2.216,0.004 c 3.675,0.006 3.417,-0.306 3.417,4.128 0,4.524 0.119,4.353 -3.08,4.457 l -2.386,0.078 v 0.8 0.8 l 7.044,0.071 c 4.653,0.047 7.166,0.171 7.4,0.366 0.521,0.432 0.513,9.367 -0.008,9.799 -0.262,0.218 -3.926,0.283 -13.133,0.233 l -12.77,-0.069 -0.069,-16.25 c -0.054,-12.823 0.002,-16.295 0.267,-16.463 0.579,-0.367 25.378,-0.272 25.749,0.099 m -67.414,4.487 c 15.41,5.221 14.394,25.966 -1.428,29.169 -17.629,3.569 -26.254,-19.961 -10.305,-28.112 1.125,-0.575 1.652,-0.751 4,-1.337 1.243,-0.311 6.558,-0.118 7.733,0.28 m -17.221,41.755 c 0.499,0.192 0.531,0.696 0.119,1.837 -0.278,0.769 -0.226,0.937 0.65,2.084 3.974,5.206 -2.583,11.533 -6.821,6.582 -3.289,-3.843 1.544,-12.232 6.052,-10.503 m 16.155,1.584 c 3.663,0.754 7.579,2.42 9.958,4.236 1.723,1.316 1.747,1.293 1.832,-1.782 l 0.076,-2.733 h 5.467 5.467 v 16.267 16.266 l -4.934,0.076 c -6.519,0.1 -6.016,0.305 -6.221,-2.537 -0.444,-6.17 -4.073,-12.612 -9.146,-16.238 -2.685,-1.918 -2.483,-2.609 -2.563,8.766 l -0.07,9.933 h -5.466 -5.467 l -0.069,-16 c -0.038,-8.8 -0.012,-16.15 0.058,-16.333 0.195,-0.51 8.507,-0.451 11.078,0.079 m -42.087,44.672 c 6.036,1.207 10.026,4.356 11.705,9.237 0.939,2.727 0.579,9.055 -0.587,10.332 -0.127,0.139 -0.231,0.414 -0.231,0.611 0,0.999 -3.819,4.597 -5.991,5.645 -2.758,1.33 -4.401,1.666 -9.076,1.853 l -4.267,0.171 -0.133,2.4 -0.133,2.4 h -5.467 -5.467 l -0.068,-16.467 -0.069,-16.466 h 9.182 c 5.431,0 9.762,0.116 10.602,0.284 m 28.487,11.049 0.133,11.2 4.4,0.133 4.4,0.134 0.133,4.697 c 0.074,2.584 0.095,4.894 0.047,5.133 -0.111,0.565 -19.699,0.678 -20.26,0.116 -0.34,-0.34 -0.491,-31.458 -0.156,-32.33 0.144,-0.376 0.823,-0.418 5.667,-0.355 l 5.502,0.072 0.134,11.2 m 48.202,4.903 c 0.044,10.448 -0.025,16.217 -0.198,16.425 -0.203,0.245 -4.247,0.316 -17.002,0.297 l -16.736,-0.025 0.081,-2.533 c 0.324,-10.127 5.421,-20.378 12.719,-25.581 5.008,-3.569 9.291,-4.772 16.8,-4.717 l 4.267,0.031 0.069,16.103 M 249.532,163.8 c 0.145,0.183 0.66,1.053 1.143,1.933 2.296,4.181 2.127,3.952 2.747,3.714 0.245,-0.094 0.445,-0.286 0.445,-0.427 0,-0.141 0.69,-1.446 1.533,-2.901 l 1.533,-2.646 6.051,-0.003 c 3.328,-0.002 6.103,0.087 6.167,0.197 0.063,0.11 -1.922,3.44 -4.412,7.4 -2.49,3.96 -4.588,7.41 -4.664,7.666 -0.075,0.257 -0.224,0.467 -0.33,0.467 -0.687,0 -0.853,1.733 -0.843,8.785 0.007,4.033 -0.057,7.609 -0.142,7.946 l -0.154,0.613 -5.503,-0.072 -5.503,-0.072 -0.071,-8.037 c -0.059,-6.724 -0.135,-8.091 -0.466,-8.366 -0.218,-0.181 -0.396,-0.429 -0.396,-0.551 0,-0.122 -2.1,-3.59 -4.667,-7.705 -2.567,-4.116 -4.667,-7.661 -4.667,-7.879 0,-0.538 11.775,-0.598 12.199,-0.062"
       stroke="none"
       fill="#040404"
       fill-rule="evenodd" />
  </g>
</svg>
